<?xml version="1.0" encoding="utf-8"?>
<!-- Generator: Adobe Illustrator 21.0.0, SVG Export Plug-In . SVG Version: 6.00 Build 0)  -->
<svg version="1.1" xmlns="http://www.w3.org/2000/svg" xmlns:xlink="http://www.w3.org/1999/xlink" x="0px" y="0px"
	 viewBox="0 0 382 177.3" style="enable-background:new 0 0 382 177.3;" xml:space="preserve">
<style type="text/css">
	.st0{fill:#FFFFFF;}
</style>
<g id="Layer_6">
	<g>
		<path class="st0" d="M305.4,64.8h-42.2c-2.1,0-3.8,1.7-3.8,3.8v45.7c0,18.3,13,33.5,30.2,37c0.2-0.7,0.4-1.5,0.6-2.2
			c0.6-1.7,1.3-3.4,2.3-4.9c-1.8,1.1-4.1,1.4-6.1,0.6c-2.5-1-4.2-3.6-4.1-6.3c0.1-2.7,1.9-5.2,4.5-6c-1-1.8-0.9-4.1,0.2-5.8
			c1.1-1.7,3.1-2.8,5.1-2.8c-0.1-0.1-0.2-0.2-0.3-0.4c-3.6-3.7-10.1-4-13.9-0.5c-0.3-3,2.1-5.8,4.9-6.9c2.8-1.1,5.9-1,9-0.8
			c-0.8-1.2-1.7-2.5-1.8-3.9c-0.1-1.5,1-3.1,2.4-3c0.8,0,1.6,0.5,2.3,0.4c1-0.2,1.5-1.3,1.5-2.3c0-1-0.5-2-0.6-2.9
			c-0.2-1.8,0.5-3.6,1.9-4.7c1.4-1.1,3.4-1.5,5-0.9c-0.9-1.7-0.3-4,1.3-5.2s3.9-1,5.3,0.3c0.2-2.2,2.7-3.5,4.8-3.3
			c2.1,0.3,4,1.6,5.7,2.9c-0.5-1.2,0.2-2.7,1.3-3.2c1.2-0.5,2.6-0.2,3.6,0.7c1,0.8,1.5,2.1,1.8,3.3c0.6,2.7-0.2,5.7-2,7.8
			c1.8-0.6,3.7-1.2,5.7-1.1c2.7,0.2,5.6,2.2,4.8,5.6c-0.3,1.1-0.9,2.1-1.8,2.9c-2.1,1.8-5,2.2-7.7,2.5c-1.1,0.1-2.1,0.2-3.2,0.4
			c2.2,0.7,4.2,2,5.7,3.7c2.5,2.8,4,6.4,5.1,10c1.9,6.4,2.6,13.2,2.2,19.9c10.4-7,17.2-18.9,17.2-32.4v-1.3
			C352.2,85.8,331.2,64.8,305.4,64.8z"/>
	</g>
	<circle class="st0" cx="304.2" cy="117.2" r="3.3"/>
</g>
<g id="Layer_5">
	<g>
		<g>
			<path class="st0" d="M183.6,14.2c-12.6,0-23.3,8.4-26.7,20c1-0.4,2.1-0.7,3.2-0.7c2.8-0.1,5.5,0.7,8.2,1.1
				c2.2,0.3,4.5,0.3,6.5-0.5c-0.1-2.1,0.5-4.1,1.6-5.8c2.2-3.2,6.4-4.9,10.2-3.9c-2.4,0.3-4.6,1.8-5.8,3.8c-0.5,0.8-0.8,1.7-1,2.6
				c-0.1,0.7,0.1,1.5,0.7,2c2.6,2.5,5.9,4.1,9.4,4.7c1.3,0.2,2.4,1.3,2.6,2.6l0,0c0.1,0.8,0.2,1.5,0.1,2.3c-0.4,3.3,0.9,6.5,2.5,9.3
				c1.5,2.5,3.2,4.8,4.5,7.4c0.6,1.2,1.7,3.3,1.1,4.7c-0.6,1.3-2.6,2.6-3.7,3.3c-1.3,0.9-2.9,1.4-4.5,1.2c-1.6-0.2-3-1.2-4.4-2.1
				c-4.6-2.8-10.1-4.1-15.5-3.8c-0.4,0-0.8,0.1-1.2,0.1c-3.4,0.3-6.9,1.4-9.7,3.2c4.8,6,12.2,9.9,20.4,9.9h2.3c16,0,29-13,29-29V18
				c0-2.1-1.7-3.8-3.8-3.8H183.6z"/>
		</g>
	</g>
	<circle class="st0" cx="189" cy="48.6" r="2.2"/>
</g>
<g id="Layer_4">
	<g>
		<g>
			<path class="st0" d="M71,64.8h-8.2c-14.2,0-26.3,9-31,21.6c4.6-1.5,9.6-2,14.4-1.6c0.7-2.2,1.8-4.3,3.3-6c1.9-2.2,4.3-3.8,7-4.7
				c2,2.1,3.4,4.7,4.1,7.4c0.6,2.5,0.6,5.1,0.1,7.7c6.5,3.6,11.9,9.2,15.2,15.8c2,4,2.5,9.2,5.6,12.6c0.9,1,2,1.8,3.1,2.5
				c2.4,1.4,3.3,4.4,2.1,6.8c-0.3,0.7-0.6,1.3-1,2c-1.5,3.1-5.4,4.1-8.1,2.1l-0.1,0c-0.6,1.6-2.7,2.1-4.4,2
				c-1.7-0.2-3.4-0.8-5.1-0.7c-2.3,0.2-4.2,1.7-6.3,2.4c-2.4,0.9-5,0.8-7.5,0.3c-1.2-0.2-2.3-0.6-3.5-0.9c-3.5-1.2-7-2.7-10.7-3.2
				c-2.2-0.3-4.6,0-6.6,0.8c6,12.1,18.4,20.4,32.9,20.4h42.8c2.1,0,3.8-1.7,3.8-3.8v-41.4C113.1,83.6,94.2,64.8,71,64.8z"/>
		</g>
	</g>
	<g>
		<path class="st0" d="M84.5,124.6c-0.4-0.2-0.9,0-1.4,0.5c0.1,0.4,0,0.8-0.1,1.2c-0.2,0.7-0.6,1.3-1.1,1.9c0.1,0.2,0.2,0.4,0.3,0.5
			c0.6,0.3,1.5-0.4,2.1-1.5C85,126.1,85.1,124.9,84.5,124.6z"/>
	</g>
	<circle class="st0" cx="67.2" cy="105.8" r="2.6"/>
</g>
<g id="Layer_7">
	<path class="st0" d="M220.1,158.8C206,102.4,161.4,58,104.8,44.2c-0.5-0.1-0.7,0.6-0.2,0.7c42.3,15.4,76.2,48.4,92.7,90.2
		c-18.3-31.6-48.1-55.7-83.5-66.7c-0.5-0.1-0.7,0.5-0.3,0.7c32.8,15.2,59.1,42.1,73.4,75.4c-12.7-21-31.6-37.8-54.2-47.8
		c-0.4-0.2-0.8,0.4-0.4,0.7c21.7,14.7,38.3,36.2,46.9,61.4h0c-9.1-20.6-26.2-36.9-47.5-44.9c-0.4-0.2-0.7,0.5-0.3,0.7
		c16.4,10.1,29,25.7,35.4,44.2H166c-6.2-11.7-15.9-21.2-27.8-27.1c-0.4-0.2-0.8,0.3-0.5,0.6c6.8,7.4,11.8,16.5,14.4,26.5H32.3
		c-1.4,0-2.5,1.1-2.5,2.5v0c0,1.4,1.1,2.5,2.5,2.5h120.9h68.1h128.3c1.4,0,2.5-1.1,2.5-2.5v0c0-1.4-1.1-2.5-2.5-2.5H220.1z"/>
	<g>
		<path class="st0" d="M233.6,116.2c-7,2.7-13.6,6.2-19.6,10.5c0.8,1.6,1.5,3.1,2.3,4.7c5.2-5.6,11.1-10.5,17.7-14.6
			C234.4,116.6,234.1,116,233.6,116.2z"/>
		<path class="st0" d="M260.5,46.5c-28.4,6.9-53.7,21.6-73.7,41.5c2.2,2.3,4.3,4.6,6.4,7c17.7-21.4,41-38.1,67.6-47.8
			C261.2,47.1,261,46.4,260.5,46.5z"/>
		<path class="st0" d="M251.6,70.7c-20.1,6.3-38.3,16.7-53.6,30.3c1.8,2.3,3.5,4.6,5.1,7c13.5-15.3,30.1-27.9,48.9-36.6
			C252.3,71.3,252.1,70.6,251.6,70.7z"/>
		<path class="st0" d="M232.6,99c-9.1,4.1-17.7,9.3-25.5,15.4c1.1,1.7,2.1,3.5,3.1,5.2c6.7-7.6,14.3-14.3,22.7-20
			C233.4,99.4,233.1,98.8,232.6,99z"/>
	</g>
</g>
</svg>
